<?xml version="1.0"?>
<svg xmlns="http://www.w3.org/2000/svg" viewBox="0 0 64 64" width="512" height="512"><g id="chart-financial-business-finance-7" data-name="chart-financial-business-finance"><rect x="3" y="2" width="59" height="59" style="fill:#fff6d2"/><rect x="44" y="36" width="10" height="25" style="fill:#b3d4fb"/><rect x="27" y="9" width="10" height="52" style="fill:#ffb19d"/><rect x="10" y="26" width="10" height="35" style="fill:#f4e879"/><rect x="20" y="26" width="2" height="35" style="fill:#bcbec0"/><rect x="37" y="10" width="2" height="51" style="fill:#bcbec0"/><rect x="54" y="37" width="2" height="24" style="fill:#bcbec0"/><rect x="10" y="26" width="2" height="35" style="fill:#f8f0a6"/><rect x="27" y="9" width="2" height="52" style="fill:#ffcbbe"/><rect x="44" y="36" width="2" height="25" style="fill:#cde2fc"/><path d="M55,60V35H43V60H38V8H26V60H21V25H9V60H4V47H5V45H4V33H5V31H4V17H5V15H4V2H2V62H62V60ZM11,60V27h8V60Zm17,0V10h8V60Zm17,0V37h8V60Z" style="fill:#525280"/></g></svg>
